<svg xmlns="http://www.w3.org/2000/svg" width="473.496" height="67" viewBox="0 0 473.496 67">
  <g id="Group_16153" data-name="Group 16153" transform="translate(-175 -739)">
    <g id="Group_16152" data-name="Group 16152">
      <rect id="Rectangle_22" data-name="Rectangle 22" width="276" height="67" rx="10" transform="translate(175 739)" fill="#23233c"/>
      <text id="Descargar_app" data-name="Descargar app" transform="translate(313 779)" fill="#fff" font-size="20" font-family="SegoeUI-Bold, Segoe UI" font-weight="700"><tspan x="-67.397" y="0">Descargar app</tspan></text>
      <g id="app_store" transform="translate(541.041 753.731)">
        <g id="apple" transform="translate(0 0)">
          <path id="Path_157" data-name="Path 157" d="M56.429,147.41c-5.7-.033-10.407-11.659-10.407-17.58,0-9.672,7.256-11.79,10.052-11.79a11.567,11.567,0,0,1,3.793.933,8.478,8.478,0,0,0,2.166.621,6.739,6.739,0,0,0,1.554-.5,12.452,12.452,0,0,1,4.683-1.132h.011a9.6,9.6,0,0,1,8.032,4.056l.586.88-.843.636a7.094,7.094,0,0,0-3.4,5.85,6.6,6.6,0,0,0,3.684,6.1c.528.318,1.074.645,1.074,1.361,0,.468-3.731,10.506-9.15,10.506a7.359,7.359,0,0,1-3.09-.75,6.266,6.266,0,0,0-2.75-.662,7.074,7.074,0,0,0-2.178.589,10.666,10.666,0,0,1-3.777.881Z" transform="translate(-46.022 -109.141)" fill="#23233c"/>
          <path id="Path_158" data-name="Path 158" d="M262.344,0c.141,5.088-3.5,8.618-7.132,8.4C254.612,4.336,258.846,0,262.344,0Z" transform="translate(-239.523 0)" fill="#23233c"/>
        </g>
      </g>
      <g id="android-logo" transform="translate(618.666 755.049)">
        <g id="Group_8" data-name="Group 8" transform="translate(0 0)">
          <path id="Path_159" data-name="Path 159" d="M44.726,179.141a2.1,2.1,0,0,0-1.546.635,2.08,2.08,0,0,0-.636,1.525v9.11a2.17,2.17,0,0,0,2.182,2.182,2.072,2.072,0,0,0,1.536-.636,2.124,2.124,0,0,0,.625-1.547V181.3a2.17,2.17,0,0,0-2.161-2.161Z" transform="translate(-42.544 -167.722)" fill="#6cc57c"/>
          <path id="Path_160" data-name="Path 160" d="M137.269,3.241l1.5-2.775a.279.279,0,0,0-.106-.424.293.293,0,0,0-.424.127l-1.525,2.8a10.627,10.627,0,0,0-8.517,0L126.676.17a.294.294,0,0,0-.424-.127.279.279,0,0,0-.106.424l1.5,2.775a9.29,9.29,0,0,0-3.644,3.252,8.215,8.215,0,0,0-1.356,4.566h19.6a8.217,8.217,0,0,0-1.356-4.566A9.329,9.329,0,0,0,137.269,3.241Zm-8.7,4.036a.794.794,0,0,1-.583.244.758.758,0,0,1-.572-.244.845.845,0,0,1,0-1.165.761.761,0,0,1,.572-.243.823.823,0,0,1,.583,1.408Zm8.93,0a.76.76,0,0,1-.572.244.826.826,0,0,1,0-1.653.761.761,0,0,1,.572.243.845.845,0,0,1,0,1.165Z" transform="translate(-117.545 0)" fill="#6cc57c"/>
          <path id="Path_161" data-name="Path 161" d="M123.971,199.56a2.314,2.314,0,0,0,2.33,2.33h1.568l.021,4.81a2.106,2.106,0,0,0,.635,1.547,2.081,2.081,0,0,0,1.525.636,2.17,2.17,0,0,0,2.182-2.182v-4.809h2.924V206.7a2.182,2.182,0,1,0,4.364,0v-4.809h1.589a2.314,2.314,0,0,0,2.309-2.33V185.45H123.971Z" transform="translate(-118.78 -173.628)" fill="#6cc57c"/>
          <path id="Path_162" data-name="Path 162" d="M444.537,179.141a2.1,2.1,0,0,0-1.525.625,2.072,2.072,0,0,0-.636,1.536v9.11a2.1,2.1,0,0,0,.636,1.547,2.081,2.081,0,0,0,1.525.636,2.17,2.17,0,0,0,2.182-2.182V181.3a2.071,2.071,0,0,0-.635-1.536A2.125,2.125,0,0,0,444.537,179.141Z" transform="translate(-416.889 -167.722)" fill="#6cc57c"/>
        </g>
      </g>
    </g>
  </g>
</svg>
