<svg xmlns="http://www.w3.org/2000/svg" width="351" height="116.92" viewBox="0 0 351 116.92">
  <g id="Group_16155" data-name="Group 16155" transform="translate(-29 -1190)">
    <rect id="Rectangle_106" data-name="Rectangle 106" width="351" height="67" rx="10" transform="translate(29 1190)" fill="#23233c"/>
    <text id="Descargar_app" data-name="Descargar app" transform="translate(207 1230)" fill="#fff" font-size="20" font-family="SegoeUI-Bold, Segoe UI" font-weight="700"><tspan x="-67.397" y="0">Descargar app</tspan></text>
    <g id="app_store" transform="translate(158.041 1277.731)">
      <g id="apple" transform="translate(0 0)">
        <path id="Path_157" data-name="Path 157" d="M53.96,140.422c-4.344-.025-7.938-8.893-7.938-13.409,0-7.377,5.534-8.992,7.667-8.992a8.822,8.822,0,0,1,2.893.711,6.466,6.466,0,0,0,1.652.474,5.14,5.14,0,0,0,1.185-.384,9.5,9.5,0,0,1,3.572-.863H63a7.321,7.321,0,0,1,6.126,3.094l.447.671-.643.485a5.411,5.411,0,0,0-2.595,4.462,5.036,5.036,0,0,0,2.81,4.656c.4.242.819.492.819,1.038,0,.357-2.846,8.014-6.979,8.014a5.613,5.613,0,0,1-2.357-.572,4.779,4.779,0,0,0-2.1-.505,5.4,5.4,0,0,0-1.661.449,8.135,8.135,0,0,1-2.881.672Z" transform="translate(-46.022 -111.233)" fill="#23233c"/>
        <path id="Path_158" data-name="Path 158" d="M260.638,0c.108,3.881-2.668,6.573-5.44,6.4C254.741,3.307,257.97,0,260.638,0Z" transform="translate(-243.232 0)" fill="#23233c"/>
      </g>
    </g>
    <g id="android-logo" transform="translate(233.549 1278.736)">
      <g id="Group_8" data-name="Group 8" transform="translate(0 0)">
        <path id="Path_159" data-name="Path 159" d="M44.208,179.141a1.605,1.605,0,0,0-1.18.485,1.587,1.587,0,0,0-.485,1.163v6.949a1.655,1.655,0,0,0,1.664,1.665,1.581,1.581,0,0,0,1.172-.485,1.62,1.62,0,0,0,.477-1.18v-6.949a1.655,1.655,0,0,0-1.648-1.648Z" transform="translate(-42.544 -170.431)" fill="#6cc57c"/>
        <path id="Path_160" data-name="Path 160" d="M133.8,2.472,134.948.356a.213.213,0,0,0-.081-.323.224.224,0,0,0-.323.1l-1.163,2.133a8.105,8.105,0,0,0-6.5,0L125.721.129a.224.224,0,0,0-.323-.1.212.212,0,0,0-.081.323l1.147,2.117a7.086,7.086,0,0,0-2.779,2.481,6.265,6.265,0,0,0-1.034,3.483H137.6a6.267,6.267,0,0,0-1.034-3.483A7.115,7.115,0,0,0,133.8,2.472Zm-6.633,3.079a.606.606,0,0,1-.445.186.578.578,0,0,1-.436-.186.644.644,0,0,1,0-.888.58.58,0,0,1,.436-.186.628.628,0,0,1,.445,1.074Zm6.811,0a.58.58,0,0,1-.436.186.63.63,0,0,1,0-1.26.581.581,0,0,1,.436.186.644.644,0,0,1,0,.888Z" transform="translate(-118.756 0)" fill="#6cc57c"/>
        <path id="Path_161" data-name="Path 161" d="M123.971,196.212a1.765,1.765,0,0,0,1.777,1.777h1.2l.016,3.669a1.606,1.606,0,0,0,.485,1.18,1.587,1.587,0,0,0,1.163.485,1.655,1.655,0,0,0,1.664-1.665V197.99h2.23v3.668a1.664,1.664,0,1,0,3.329,0V197.99h1.212a1.765,1.765,0,0,0,1.761-1.777V185.45H123.971Z" transform="translate(-120.012 -176.433)" fill="#6cc57c"/>
        <path id="Path_162" data-name="Path 162" d="M444.024,179.141a1.6,1.6,0,0,0-1.163.477,1.58,1.58,0,0,0-.485,1.171v6.949a1.6,1.6,0,0,0,.485,1.18,1.587,1.587,0,0,0,1.163.485,1.655,1.655,0,0,0,1.664-1.665v-6.949a1.58,1.58,0,0,0-.485-1.171A1.621,1.621,0,0,0,444.024,179.141Z" transform="translate(-422.936 -170.431)" fill="#6cc57c"/>
      </g>
    </g>
  </g>
</svg>
